<?xml version="1.0" standalone="no"?>
<!DOCTYPE svg PUBLIC "-//W3C//DTD SVG 20010904//EN"
 "http://www.w3.org/TR/2001/REC-SVG-20010904/DTD/svg10.dtd">
<svg version="1.0" xmlns="http://www.w3.org/2000/svg"
 width="145.000000pt" height="170.000000pt" viewBox="0 0 145.000000 170.000000"
 preserveAspectRatio="xMidYMid meet">

<g transform="translate(0.000000,170.000000) scale(0.100000,-0.100000)"
fill="#000000" stroke="none">
<path d="M680 1496 c-201 -72 -385 -143 -410 -156 -74 -41 -73 -30 -67 -617
l5 -512 29 -43 c16 -24 36 -44 46 -46 14 -3 17 5 17 51 0 39 5 58 18 69 9 9
181 75 382 148 201 72 372 138 380 146 13 13 15 85 15 527 0 282 -3 524 -8
540 -4 17 -14 27 -25 26 -9 0 -181 -60 -382 -133z" style="stroke-dasharray: 30px; fill: rgb(67, 82, 216);"/>
<path d="M1186 1548 c-10 -31 -16 -254 -16 -659 l0 -436 -357 -128 c-197 -70
-362 -130 -366 -135 -5 -4 -7 -17 -5 -28 3 -18 33 -9 381 117 274 98 382 142
390 156 9 14 13 171 14 562 2 531 2 543 -18 553 -14 8 -20 8 -23 -2z"/>
<path d="M365 246 c-52 -23 -58 -36 -50 -130 l7 -85 25 30 26 30 28 -27 29
-28 0 112 c0 124 -1 126 -65 98z" style="stroke-dasharray: 30px; fill: rgb(0, 6, 157);"/>
</g>
</svg>
