<?xml version="1.0" standalone="no"?>
<!DOCTYPE svg PUBLIC "-//W3C//DTD SVG 20010904//EN"
 "http://www.w3.org/TR/2001/REC-SVG-20010904/DTD/svg10.dtd">
<svg version="1.0" xmlns="http://www.w3.org/2000/svg"
 width="170.000000pt" height="170.000000pt" viewBox="0 0 170.000000 170.000000"
 preserveAspectRatio="xMidYMid meet">

<g transform="translate(0.000000,170.000000) scale(0.100000,-0.100000)"
fill="#000000" stroke="none">
<path d="M832 1398 c-28 -51 -53 -105 -57 -119 l-6 -26 -30 29 c-16 16 -33 27
-39 23 -13 -8 -13 -101 1 -126 10 -20 9 -20 -20 -5 -16 9 -33 16 -37 16 -10 0
6 -92 23 -123 18 -36 14 -40 -26 -26 -18 6 -35 9 -38 5 -11 -11 40 -107 70
-132 l29 -24 -29 0 c-15 -1 -38 -6 -51 -13 -22 -13 -22 -13 24 -47 26 -19 59
-43 73 -52 28 -19 38 -48 40 -119 0 -25 4 -49 8 -52 3 -4 19 26 35 66 l28 73
54 17 c29 10 72 31 96 48 40 29 41 31 23 44 -11 8 -32 17 -48 21 -27 7 -27 7
25 32 54 25 90 69 90 109 0 21 -1 21 -35 7 -50 -21 -51 -18 -12 25 32 36 63
108 52 120 -3 2 -13 -3 -23 -12 -31 -28 -45 -21 -27 13 14 27 22 120 9 120 -3
0 -13 -4 -23 -10 -17 -8 -20 -2 -31 63 -30 177 -29 177 -88 -79 -29 -126 -61
-269 -72 -319 l-20 -90 5 65 c3 36 23 177 45 314 22 137 38 251 36 253 -2 2
-27 -38 -54 -89z" style="stroke-dasharray: 30px; fill: rgb(67, 82, 216);"/>
<path d="M915 747 c-59 -22 -61 -23 -102 -102 -22 -44 -45 -81 -51 -83 -5 -1
-12 30 -16 70 -9 97 -13 108 -39 108 -12 0 -125 -20 -252 -45 -126 -25 -248
-49 -270 -53 -36 -6 -40 -10 -40 -36 0 -34 -31 -21 345 -142 146 -47 288 -88
315 -91 48 -4 63 2 350 140 268 130 300 148 303 171 3 20 -2 26 -20 30 -36 8
-421 56 -443 55 -11 0 -47 -10 -80 -22z" style="stroke-dasharray: 30px; fill: rgb(0, 6, 157);"/>
</g>
</svg>
