<?xml version="1.0" standalone="no"?>
<!DOCTYPE svg PUBLIC "-//W3C//DTD SVG 20010904//EN"
 "http://www.w3.org/TR/2001/REC-SVG-20010904/DTD/svg10.dtd">
<svg version="1.0" xmlns="http://www.w3.org/2000/svg"
 width="180.000000pt" height="180.000000pt" viewBox="0 0 180.000000 180.000000"
 preserveAspectRatio="xMidYMid meet">

<g transform="translate(0.000000,180.000000) scale(0.100000,-0.100000)"
fill="rgb(0, 6, 157)" stroke="none">
<path d="M50 901 l0 -821 390 0 391 0 -3 528 c-3 577 1 532 -66 687 -103 239
-349 409 -614 423 l-98 5 0 -822z m600 179 c11 -11 20 -25 20 -30 0 -5 -9 -19
-20 -30 -19 -19 -33 -20 -231 -20 -126 0 -218 4 -230 10 -28 16 -26 68 4 80
12 5 115 9 230 9 194 1 208 0 227 -19z m1 -291 c18 -18 19 -50 2 -69 -3 -3
-108 -6 -233 -8 l-229 -3 -17 25 c-15 24 -15 28 0 51 l16 25 220 0 c208 0 221
-1 241 -21z m5 -293 c12 -18 11 -51 -3 -66 -9 -10 -429 -11 -456 -1 -36 14
-39 67 -4 81 12 5 118 8 235 7 199 -2 215 -3 228 -21z" style="stroke-dasharray: 30px;"/>
<path d="M1535 1713 c-50 -11 -155 -48 -209 -74 -159 -77 -286 -227 -361 -424
l-30 -80 -3 -528 -3 -527 391 0 390 0 0 820 0 820 -77 -1 c-43 -1 -87 -3 -98
-6z m25 -626 c16 -8 25 -21 25 -37 0 -43 -32 -50 -245 -50 -163 0 -199 3 -218
16 -29 20 -25 54 8 71 35 18 395 18 430 0z m0 -290 c16 -8 25 -21 25 -37 0
-43 -32 -50 -245 -50 -163 0 -199 3 -218 16 -29 20 -25 54 8 71 35 18 395 18
430 0z m0 -290 c33 -17 37 -51 8 -71 -33 -24 -413 -24 -446 0 -15 10 -22 24
-20 37 6 40 41 47 243 47 133 0 198 -4 215 -13z" style="stroke-dasharray: 30px;"/>
</g>
</svg>
