<?xml version="1.0" standalone="no"?>
<!DOCTYPE svg PUBLIC "-//W3C//DTD SVG 20010904//EN"
 "http://www.w3.org/TR/2001/REC-SVG-20010904/DTD/svg10.dtd">
<svg version="1.0" xmlns="http://www.w3.org/2000/svg"
 width="426.000000pt" height="545.000000pt" viewBox="0 0 426.000000 545.000000"
 preserveAspectRatio="xMidYMid meet">


<g transform="translate(0.000000,545.000000) scale(0.100000,-0.100000)"
fill="rgb(0 0 0)" stroke="none">

<path d="M2465 5005 c-251 -46 -610 -188 -852 -336 -98 -59 -97 -72 4 -90 32
-6 93 -19 136 -31 74 -19 77 -21 77 -50 l0 -29 -30 21 c-16 12 -30 17 -30 12
0 -15 58 -61 86 -68 29 -8 77 3 69 16 -8 13 99 50 175 61 36 5 146 7 245 4
182 -6 251 -18 385 -63 51 -17 53 -20 33 -30 -30 -16 -41 -15 -70 8 -32 25
-54 25 -85 0 -22 -17 -35 -19 -112 -13 -56 4 -112 1 -157 -7 l-71 -14 -62 32
c-35 18 -77 32 -94 32 -38 0 -82 -19 -82 -35 0 -19 -44 -55 -67 -55 -12 0 -33
4 -47 10 -31 11 -36 -4 -7 -20 42 -22 80 -12 127 35 26 27 54 45 67 45 12 0
51 -14 86 -31 58 -28 69 -31 115 -23 28 5 109 9 179 9 113 0 131 3 142 19 15
20 45 16 65 -9 15 -17 53 -19 81 -4 18 9 19 8 13 -18 -4 -15 -11 -32 -15 -37
-19 -21 -9 -36 24 -36 74 0 217 -59 217 -89 0 -33 -38 -135 -51 -139 -19 -6
-49 -33 -49 -45 0 -5 6 -4 14 2 27 22 75 16 104 -12 40 -40 37 -99 -6 -138
-17 -16 -44 -31 -59 -34 -59 -13 -62 -19 -78 -157 -4 -26 -12 -54 -19 -61 -8
-7 -21 -27 -30 -44 -16 -32 -150 -150 -216 -191 -31 -19 -32 -22 -12 -22 27 0
78 24 109 53 39 35 37 10 -3 -41 -133 -166 -169 -201 -242 -238 -55 -28 -87
-38 -127 -39 -92 -3 -111 4 -176 64 -56 52 -61 61 -74 121 -7 36 -12 66 -10
68 2 2 16 -3 32 -11 56 -29 213 -65 213 -49 0 4 -29 14 -65 21 -108 22 -191
68 -267 150 -72 76 -120 158 -142 244 -19 72 -30 292 -18 342 6 22 24 92 41
155 17 63 31 118 31 123 0 4 -11 7 -24 7 -26 0 -74 48 -103 103 -12 23 -18 28
-21 15 -2 -9 5 -32 14 -50 10 -19 18 -56 19 -87 1 -48 5 -57 31 -79 l31 -25
-20 -61 c-24 -76 -33 -246 -19 -372 9 -76 18 -107 58 -188 28 -58 66 -117 94
-147 l47 -50 -14 -61 c-16 -71 -27 -94 -59 -126 -17 -18 -27 -21 -41 -14 -27
15 -146 -5 -243 -40 -47 -16 -134 -47 -195 -69 -60 -21 -130 -53 -155 -71
-139 -100 -198 -141 -227 -155 -40 -19 -290 -275 -361 -369 -29 -38 -57 -85
-62 -104 -41 -141 -62 -559 -39 -756 6 -52 9 -97 6 -100 -3 -3 -45 -11 -94
-17 l-88 -13 -50 -53 c-64 -69 -71 -79 -84 -129 -47 -173 172 -273 367 -167
42 23 68 33 70 26 8 -25 128 -179 185 -238 43 -45 73 -67 108 -78 l49 -17 -7
-321 c-7 -373 0 -537 25 -537 13 0 14 20 8 174 -3 95 -3 286 0 424 l7 251 31
-7 c58 -13 189 -6 246 13 113 37 200 95 245 164 29 43 51 167 61 337 6 105 9
115 31 129 38 26 408 129 430 121 23 -9 53 31 53 72 0 60 -41 182 -62 182 -10
0 -24 13 -33 29 l-15 29 -77 -5 c-65 -5 -278 -63 -399 -110 -7 -3 -15 8 -19
27 -4 18 -16 36 -28 41 -12 6 -33 34 -46 62 -24 51 -104 139 -169 187 -28 21
-34 34 -42 85 -6 33 -10 89 -11 125 -1 56 -2 61 -10 35 -12 -38 -15 -140 -5
-181 l7 -31 -57 19 c-33 11 -76 18 -103 16 l-46 -3 75 -19 c98 -25 174 -63
238 -121 49 -44 118 -132 110 -140 -2 -2 -41 8 -88 21 -117 35 -220 31 -305
-10 -89 -44 -194 -154 -241 -254 l-38 -79 -86 -16 c-112 -22 -110 -22 -110 14
0 16 -5 62 -12 100 -13 81 4 479 28 637 l14 94 83 101 c184 223 254 291 407
396 l145 100 6 -47 c4 -26 24 -103 47 -172 22 -69 43 -134 46 -145 3 -11 3 6
1 37 -3 31 -21 105 -40 164 -19 59 -35 124 -35 145 0 46 20 62 97 78 29 6 96
29 149 51 85 35 137 52 235 74 l26 6 -9 -53 c-25 -133 -1 -216 159 -562 38
-82 80 -178 92 -212 13 -34 38 -85 57 -115 19 -29 34 -56 34 -61 0 -5 -13 -27
-28 -50 -44 -65 -47 -76 -7 -32 33 37 72 93 232 339 84 130 311 442 376 519
31 37 68 84 82 105 l25 38 68 -33 c37 -18 100 -41 140 -51 l73 -17 -37 -35
c-46 -44 -84 -123 -83 -175 l0 -40 18 55 c23 71 44 112 82 155 37 42 64 45 83
8 8 -16 66 -111 130 -213 280 -445 489 -941 571 -1353 35 -177 33 -200 -15
-291 -22 -41 -40 -81 -40 -89 0 -26 -99 -163 -168 -232 -96 -97 -247 -182
-409 -230 -66 -19 -125 -35 -131 -35 -6 0 6 25 27 55 82 117 123 342 91 497
-31 143 -210 380 -339 448 l-23 12 39 23 c22 12 70 45 106 72 81 62 147 86
227 81 65 -3 77 11 19 24 -71 16 -154 -3 -233 -52 l-34 -20 -22 72 c-22 72
-47 249 -71 506 -7 72 -16 132 -21 132 -24 0 23 -487 59 -615 20 -72 23 -95
14 -117 -13 -34 -58 -63 -129 -84 -71 -21 -86 -10 -147 103 -45 83 -47 90 -42
146 6 71 -6 102 -44 116 -88 31 -178 -157 -140 -294 6 -22 7 -43 2 -48 -4 -4
-44 1 -89 12 -44 12 -92 21 -107 21 -39 0 -99 -35 -113 -65 -14 -31 -6 -115
14 -142 11 -15 9 -21 -8 -40 -32 -34 -37 -125 -10 -162 13 -18 18 -37 15 -53
-3 -14 2 -52 12 -83 12 -43 23 -60 45 -73 22 -13 30 -25 30 -45 0 -48 27 -87
76 -108 25 -10 55 -19 67 -19 36 0 169 39 218 65 l46 23 7 -120 c4 -66 13
-135 21 -154 23 -57 144 -131 252 -155 42 -10 62 -9 95 1 24 7 56 15 73 17 16
2 45 8 64 13 19 5 36 8 38 6 2 -2 8 -37 12 -77 53 -451 55 -459 74 -459 15 0
17 6 13 32 -28 176 -60 423 -61 463 l0 50 85 30 c112 40 173 73 268 144 120
90 183 173 275 361 79 160 79 189 -4 501 -115 436 -292 823 -572 1255 -62 94
-116 179 -122 187 -6 10 -45 24 -101 36 -83 18 -148 44 -257 103 -36 19 -37
21 -21 39 15 17 15 26 -15 151 l-31 132 27 30 c16 17 38 41 49 54 22 23 48
105 62 196 7 47 8 49 59 68 64 24 103 67 103 114 0 52 -24 101 -59 119 -17 8
-31 17 -31 18 0 1 11 29 25 62 13 33 25 68 25 78 0 11 6 33 14 50 8 18 17 53
21 79 6 46 8 49 78 92 40 24 82 47 95 51 50 15 22 45 -125 135 -78 48 -239
156 -358 239 -118 83 -219 151 -223 150 -4 0 -38 -7 -77 -14z m104 -29 c40
-38 444 -318 559 -387 56 -34 102 -65 102 -70 0 -4 -8 -10 -18 -13 -9 -3 -39
-21 -66 -39 l-49 -33 -43 46 c-57 60 -124 99 -283 164 -201 82 -337 93 -625
50 -225 -33 -310 -67 -332 -132 0 -1 -25 6 -55 17 -30 10 -75 22 -100 26 -24
4 -48 10 -52 12 -13 8 87 71 203 129 127 63 327 139 510 192 74 22 146 45 160
50 40 17 62 14 89 -12z m94 -315 c100 -26 310 -128 365 -177 l44 -39 -17 -57
-16 -57 -55 35 c-30 19 -74 42 -97 50 -23 8 -51 18 -62 23 -30 13 -101 37
-197 66 -78 23 -108 26 -288 31 -228 5 -302 -4 -404 -46 -38 -16 -71 -29 -72
-27 0 1 -4 31 -7 65 l-5 64 42 18 c45 21 219 54 356 69 127 14 321 6 413 -18z
m253 -282 c82 -39 114 -65 114 -94 l0 -24 -62 29 c-34 16 -86 35 -115 41 -39
9 -52 16 -48 27 3 7 5 25 5 38 0 30 12 28 106 -17z m-1039 -85 c-6 -19 -15
-34 -20 -34 -16 0 -36 34 -37 62 0 25 1 26 34 16 32 -10 33 -11 23 -44z m912
-968 l22 -99 -25 -36 c-14 -20 -47 -57 -73 -82 -49 -47 -298 -229 -314 -229
-5 0 -9 15 -9 33 0 17 -11 62 -23 98 l-23 67 51 11 c28 6 74 27 103 46 46 32
204 204 248 270 9 14 18 24 19 23 2 -2 13 -48 24 -102z m-731 29 c-3 -3 -9 2
-12 12 -6 14 -5 15 5 6 7 -7 10 -15 7 -18z m12 -94 c24 -52 59 -95 99 -123
l23 -17 -35 -31 c-41 -36 -77 -103 -77 -146 0 -27 -2 -25 -30 24 -17 29 -42
87 -56 130 l-26 78 27 40 c14 21 29 51 32 67 3 15 9 27 13 27 3 0 17 -22 30
-49z m-110 -141 c25 -78 47 -126 87 -192 41 -68 63 -75 63 -20 0 62 15 70 36
18 l19 -46 73 0 c39 0 72 4 72 9 0 4 10 21 22 36 20 26 22 26 29 9 4 -10 8
-34 8 -51 1 -18 4 -33 8 -33 31 0 319 206 373 267 40 46 40 46 63 27 12 -10
23 -20 25 -21 2 -1 -19 -30 -46 -65 -27 -34 -65 -89 -83 -120 -19 -31 -86
-124 -149 -207 l-115 -150 -20 62 c-23 70 -24 72 -73 144 -39 58 -59 67 -147
61 -49 -3 -51 -4 -77 -53 -34 -61 -68 -170 -68 -216 0 -20 -4 -29 -9 -23 -17
17 -140 294 -161 361 -13 42 -20 93 -20 144 0 68 3 81 22 99 33 30 48 21 68
-40z m-577 -1205 c43 -7 85 -19 93 -26 29 -23 168 -235 186 -282 28 -74 24
-151 -12 -214 -37 -64 -76 -88 -124 -74 -29 7 -40 5 -73 -15 -43 -27 -90 -31
-118 -10 -17 12 -22 11 -41 -9 -12 -13 -39 -28 -60 -34 -34 -9 -43 -8 -66 9
-33 24 -45 25 -86 4 -18 -9 -41 -13 -53 -9 -41 13 -79 143 -60 210 8 31 7 41
-15 72 -13 20 -24 42 -24 49 0 7 -7 19 -15 28 -13 13 -9 23 35 89 79 118 173
192 277 216 53 13 68 12 156 -4z m1267 -16 c9 -16 9 -28 -1 -51 -26 -64 -12
-118 64 -231 47 -71 56 -79 101 -92 27 -8 68 -15 91 -15 36 0 49 -7 103 -55
95 -87 212 -245 212 -287 0 -22 -21 -28 -138 -38 -95 -9 -111 -13 -181 -51
-183 -101 -259 -138 -307 -152 -28 -8 -65 -22 -81 -30 -85 -44 -172 -21 -194
53 -14 46 -5 62 45 86 30 14 28 14 -36 9 l-68 -4 -20 40 c-12 22 -22 56 -23
77 -2 34 0 37 22 34 36 -5 76 7 63 20 -7 7 -19 7 -41 0 -27 -10 -33 -8 -51 15
-30 38 -35 71 -19 117 12 35 18 41 44 43 70 3 71 4 29 23 -47 21 -54 33 -54
101 0 39 4 51 23 63 35 23 87 28 157 16 147 -25 140 -25 140 3 0 14 -5 38 -11
54 -28 72 4 223 55 258 29 21 63 18 76 -6z m-550 -20 c7 -11 10 -23 7 -25 -2
-3 -38 -9 -78 -13 -41 -5 -131 -23 -201 -40 -147 -36 -162 -37 -93 -10 28 11
86 37 130 56 68 31 127 46 207 52 10 0 22 -8 28 -20z m77 -104 c7 -28 12 -70
11 -94 l-3 -45 -80 -13 c-44 -7 -136 -29 -205 -50 -69 -20 -139 -38 -156 -40
-30 -5 -31 -3 -38 35 -3 22 -20 66 -36 97 -17 32 -29 59 -28 61 2 1 56 14 121
29 65 14 136 33 159 41 22 8 66 15 97 15 31 1 70 5 86 9 50 13 58 8 72 -45z
m-1387 -256 c-47 -16 -139 -46 -205 -66 -66 -20 -135 -47 -152 -61 -29 -21
-33 -30 -33 -69 0 -54 30 -88 85 -99 30 -5 53 -1 112 23 63 27 73 28 73 14 0
-21 -43 -63 -89 -86 -44 -22 -136 -23 -177 -2 -38 19 -64 57 -71 103 -7 42 32
125 80 172 32 31 43 35 144 48 59 8 147 23 193 33 123 28 138 24 40 -10z m140
-1 c14 -18 16 -27 8 -42 -6 -12 -8 -49 -5 -90 l6 -71 -62 -24 c-34 -12 -106
-47 -160 -77 -53 -30 -99 -54 -101 -54 -2 0 14 17 35 39 30 30 39 47 39 72 0
51 -33 97 -89 123 l-49 22 137 43 c75 23 152 51 171 61 45 24 48 24 70 -2z
m-344 -135 c13 -5 5 -12 -36 -32 -58 -28 -73 -46 -39 -48 11 -1 27 -8 36 -14
13 -12 13 -14 -3 -26 -43 -31 -114 -3 -114 46 0 48 40 80 102 81 20 0 44 -3
54 -7z m63 -49 c12 -15 21 -30 21 -33 0 -4 -17 -13 -37 -21 -21 -8 -41 -16
-45 -18 -5 -2 -8 3 -8 12 0 8 -11 23 -24 33 l-24 18 42 17 c53 22 51 22 75 -8z
m220 -241 c12 -24 19 -43 16 -43 -8 0 -115 146 -115 157 0 5 10 14 22 20 21 9
24 6 39 -41 8 -28 25 -70 38 -93z"/>
<path d="M1507 1454 c-4 -43 -5 -79 -2 -82 9 -9 25 50 25 91 0 78 -17 71 -23
-9z"/>
<path d="M1313 1445 c0 -38 2 -53 4 -32 2 20 2 52 0 70 -2 17 -4 1 -4 -38z"/>
<path d="M1118 1405 c2 -42 8 -73 13 -70 10 7 12 104 3 129 -13 34 -19 13 -16
-59z"/>
<path d="M2365 1390 c3 -5 18 -10 33 -10 21 0 24 2 12 10 -20 13 -53 13 -45 0z"/>
<path d="M2398 1223 c6 -2 18 -2 25 0 6 3 1 5 -13 5 -14 0 -19 -2 -12 -5z"/>
<path d="M2440 1060 c0 -13 11 -13 30 0 12 8 11 10 -7 10 -13 0 -23 -4 -23
-10z"/>
<path d="M2526 4313 c-13 -14 -5 -40 17 -51 12 -6 37 -23 55 -38 40 -33 41
-20 2 34 -30 42 -63 66 -74 55z"/>
<path d="M2008 4283 c-26 -17 -43 -41 -34 -50 2 -2 21 5 41 16 28 14 43 17 56
11 29 -16 41 -12 37 13 -2 17 -10 23 -38 24 -20 2 -47 -4 -62 -14z"/>
<path d="M2812 4263 c-19 -7 -4 -23 23 -23 13 0 52 -9 86 -20 35 -10 65 -17
67 -15 2 2 -18 15 -45 28 -50 25 -109 39 -131 30z"/>
<path d="M2811 4195 c10 -10 129 -42 129 -35 0 11 -76 40 -107 40 -14 0 -24
-2 -22 -5z"/>
<path d="M2012 4143 c-30 -57 -20 -133 17 -133 46 0 70 100 33 133 -24 22 -39
21 -50 0z"/>
<path d="M2820 4152 c0 -5 21 -18 47 -28 27 -11 52 -21 58 -23 15 -6 -16 29
-34 38 -28 14 -71 22 -71 13z"/>
<path d="M2479 4124 c-7 -9 -15 -47 -17 -85 -4 -59 -2 -70 13 -76 29 -11 65
39 65 90 0 40 -21 87 -39 87 -5 0 -15 -7 -22 -16z"/>
<path d="M2241 4043 c-28 -38 -61 -80 -72 -95 -34 -42 -20 -72 47 -104 30 -14
57 -24 60 -21 13 12 -24 49 -84 83 -2 1 23 45 54 98 31 53 54 99 52 102 -3 2
-28 -26 -57 -63z"/>
<path d="M2477 3814 c-3 -4 -1 -16 4 -27 15 -27 5 -32 -104 -48 -116 -17 -237
-18 -304 0 -45 11 -52 16 -55 39 l-3 27 -33 -34 c-36 -37 -40 -60 -16 -96 20
-31 34 -32 34 -3 0 21 1 21 28 -5 15 -14 50 -36 77 -49 44 -20 64 -23 180 -22
111 0 137 4 179 22 59 27 55 26 49 2 -9 -33 10 -22 45 26 39 54 37 68 -20 130
-41 44 -49 49 -61 38z m43 -121 c0 -30 -38 -54 -114 -70 -137 -29 -262 -11
-352 50 -56 37 -76 76 -27 52 52 -26 160 -37 252 -26 83 10 200 36 210 47 9 9
31 -29 31 -53z"/>
<path d="M2165 3541 c-8 -14 6 -20 53 -22 51 -3 64 7 28 21 -34 13 -73 13 -81
1z"/>
<path d="M2586 2312 c-7 -12 -48 -284 -43 -289 5 -5 47 191 47 220 0 12 4 28
9 36 7 11 14 -2 26 -45 20 -67 39 -97 29 -44 -17 87 -51 149 -68 122z"/>
<path d="M2857 1880 c3 -80 7 -147 9 -149 8 -9 2 216 -6 254 -5 26 -7 -12 -3
-105z"/>
<path d="M2067 1185 c9 -110 24 -167 18 -70 -3 44 -10 94 -15 110 -7 22 -8 12
-3 -40z"/>
<path d="M2033 1095 c0 -22 2 -30 4 -17 2 12 2 30 0 40 -3 9 -5 -1 -4 -23z"/>
<path d="M2022 970 c0 -14 2 -19 5 -12 2 6 2 18 0 25 -3 6 -5 1 -5 -13z"/>
<path d="M1596 808 c-19 -190 -26 -327 -24 -538 l1 -235 8 235 c4 129 13 316
18 414 11 179 9 244 -3 124z"/>
<path d="M1272 625 c0 -55 3 -138 7 -185 8 -84 8 -83 8 45 1 72 -2 155 -7 185
-6 49 -7 43 -8 -45z"/>
<path d="M3182 370 c0 -58 4 -136 8 -175 6 -57 7 -44 7 75 0 80 -3 159 -7 175
-5 19 -8 -7 -8 -75z"/>
</g>
</svg>
