<?xml version="1.0" standalone="no"?>
<!DOCTYPE svg PUBLIC "-//W3C//DTD SVG 20010904//EN"
 "http://www.w3.org/TR/2001/REC-SVG-20010904/DTD/svg10.dtd">
<svg version="1.0" xmlns="http://www.w3.org/2000/svg"
 width="170.000000pt" height="170.000000pt" viewBox="0 0 170.000000 170.000000"
 preserveAspectRatio="xMidYMid meet">

<g transform="translate(0.000000,170.000000) scale(0.100000,-0.100000)"
fill="#000000" stroke="none">
<path d="M759 1366 c-69 -24 -130 -89 -149 -156 -30 -109 8 -231 90 -285 29
-19 30 -23 28 -79 l-3 -59 -165 -68 c-91 -37 -169 -69 -173 -71 -7 -3 40 -307
69 -451 l6 -27 389 0 c214 0 389 1 389 3 0 1 18 107 40 236 22 129 38 236 37
238 -2 1 -80 34 -173 72 l-169 68 -3 55 c-3 55 -3 56 51 109 62 63 83 119 74
203 -10 95 -60 166 -147 205 -52 24 -136 27 -191 7z" style="stroke-dasharray: 30px; fill: rgb(67, 82, 216);"/>
<path d="M261 1150 c-27 -20 -49 -47 -62 -76 -35 -82 -21 -153 42 -219 31 -33
39 -48 39 -78 0 -42 3 -40 -150 -98 -109 -41 -112 -44 -105 -88 9 -55 22 -136
41 -243 l17 -98 173 0 174 0 -5 28 c-3 15 -16 97 -30 182 -13 85 -27 164 -30
175 -5 17 5 24 69 50 42 17 76 33 76 36 0 4 -11 10 -25 13 -21 5 -25 12 -25
46 0 32 5 42 30 60 67 48 91 161 50 241 -11 21 -39 53 -62 69 -36 26 -49 30
-108 30 -59 0 -72 -4 -109 -30z" style="stroke-dasharray: 30px; fill: rgb(0, 6, 157);"/>
<path d="M1265 1173 c-31 -8 -84 -52 -106 -87 -13 -22 -19 -50 -19 -97 0 -70
17 -105 73 -150 22 -16 27 -29 27 -64 0 -38 -3 -44 -27 -50 -25 -6 -20 -10 55
-42 57 -25 80 -39 73 -47 -8 -10 -61 -331 -61 -371 0 -13 23 -15 163 -15 l164
0 28 168 c16 92 29 178 29 192 1 22 -10 29 -126 75 l-128 50 0 46 c0 39 4 48
31 68 17 13 39 42 50 64 65 145 -68 298 -226 260z" style="stroke-dasharray: 30px; fill: rgb(0, 6, 157);"/>
</g>
</svg>
